P3
# CREATOR: GIMP PNM Filter Version 1.1
50 50
74
74 74 74   74 74 74   74 74 74   74 74 74   74 74 74   74 74 74   74 74 74   74 74 74   74 74 74   74 74 74   74 74 74   74 74 74   74 74 74   74 74 74   74 74 74   74 74 74   74 74 74   74 74 74   74 74 74   74 74 74   74 74 74   74 74 74   74 74 74   74 74 74   74 74 74   74 74 74   74 74 74   74 74 74   74 74 74   74 74 74   74 74 74   74 74 74   74 74 74   74 74 74   74 74 74   74 74 74   74 74 74   74 74 74   74 74 74   74 74 74   74 74 74   74 74 74   74 74 74   74 74 74   74 74 74   74 74 74   74 74 74   74 74 74   74 74 74   74 74 74   
74 74 74   74 74 74   74 74 74   74 74 74   74 74 74   74 74 74   74 74 74   74 74 74   74 74 74   74 74 74   74 74 74   74 74 74   74 74 74   74 74 74   74 74 74   74 74 74   74 74 74   74 74 74   74 74 74   74 74 74   74 74 74   74 74 74   74 74 74   74 74 74   74 74 74   74 74 74   74 74 74   74 74 74   74 74 74   74 74 74   74 74 74   74 74 74   74 74 74   74 74 74   74 74 74   74 74 74   74 74 74   74 74 74   74 74 74   74 74 74   74 74 74   74 74 74   74 74 74   74 74 74   74 74 74   74 74 74   74 74 74   74 74 74   74 74 74   74 74 74   
74 74 74   74 74 74   74 74 74   74 74 74   74 74 74   74 74 74   74 74 74   74 74 74   74 74 74   74 74 74   74 74 74   74 74 74   74 74 74   74 74 74   74 74 74   74 74 74   74 74 74   74 74 74   74 74 74   74 74 74   74 74 74   74 74 74   74 74 74   74 74 74   74 74 74   74 74 74   74 74 74   74 74 74   74 74 74   74 74 74   74 74 74   74 74 74   74 74 74   74 74 74   74 74 74   74 74 74   74 74 74   74 74 74   74 74 74   74 74 74   74 74 74   74 74 74   74 74 74   74 74 74   74 74 74   74 74 74   74 74 74   74 74 74   74 74 74   74 74 74   
74 74 74   74 74 74   74 74 74   74 74 74   74 74 74   74 74 74   74 74 74   74 74 74   74 74 74   74 74 74   74 74 74   74 74 74   74 74 74   74 74 74   74 74 74   74 74 74   74 74 74   74 74 74   74 74 74   74 74 74   74 74 74   74 74 74   74 74 74   74 74 74   74 74 74   74 74 74   74 74 74   74 74 74   74 74 74   74 74 74   74 74 74   74 74 74   74 74 74   74 74 74   74 74 74   74 74 74   74 74 74   74 74 74   74 74 74   74 74 74   74 74 74   74 74 74   74 74 74   74 74 74   74 74 74   74 74 74   74 74 74   74 74 74   74 74 74   74 74 74   
74 74 74   74 74 74   74 74 74   74 74 74   74 74 74   74 74 74   74 74 74   74 74 74   74 74 74   74 74 74   74 74 74   74 74 74   74 74 74   74 74 74   74 74 74   74 74 74   74 74 74   74 74 74   74 74 74   74 74 74   74 74 74   74 74 74   74 74 74   74 74 74   74 74 74   74 74 74   74 74 74   74 74 74   74 74 74   74 74 74   74 74 74   74 74 74   74 74 74   74 74 74   74 74 74   74 74 74   74 74 74   74 74 74   74 74 74   74 74 74   74 74 74   74 74 74   74 74 74   74 74 74   74 74 74   74 74 74   74 74 74   74 74 74   74 74 74   74 74 74   
74 74 74   74 74 74   74 74 74   74 74 74   74 74 74   74 74 74   74 74 74   74 74 74   74 74 74   74 74 74   74 74 74   74 74 74   74 74 74   74 74 74   74 74 74   74 74 74   74 74 74   74 74 74   74 74 74   74 74 74   74 74 74   74 74 74   74 74 74   74 74 74   74 74 74   74 74 74   74 74 74   74 74 74   74 74 74   74 74 74   74 74 74   74 74 74   74 74 74   74 74 74   74 74 74   74 74 74   74 74 74   74 74 74   74 74 74   74 74 74   74 74 74   74 74 74   74 74 74   74 74 74   74 74 74   74 74 74   74 74 74   74 74 74   74 74 74   74 74 74   
74 74 74   74 74 74   74 74 74   74 74 74   74 74 74   74 74 74   74 74 74   74 74 74   74 74 74   74 74 74   74 74 74   74 74 74   74 74 74   74 74 74   74 74 74   74 74 74   74 74 74   74 74 74   74 74 74   74 74 74   74 74 74   74 74 74   74 74 74   74 74 74   74 74 74   74 74 74   74 74 74   74 74 74   74 74 74   74 74 74   74 74 74   74 74 74   74 74 74   74 74 74   74 74 74   74 74 74   74 74 74   74 74 74   74 74 74   74 74 74   74 74 74   74 74 74   74 74 74   74 74 74   74 74 74   74 74 74   74 74 74   74 74 74   74 74 74   74 74 74   
74 74 74   74 74 74   74 74 74   74 74 74   74 74 74   74 74 74   74 74 74   74 74 74   74 74 74   74 74 74   74 74 74   74 74 74   74 74 74   74 74 74   74 74 74   74 74 74   74 74 74   74 74 74   74 74 74   74 74 74   74 74 74   74 74 74   74 74 74   74 74 74   74 74 74   74 74 74   74 74 74   74 74 74   74 74 74   74 74 74   74 74 74   74 74 74   74 74 74   74 74 74   74 74 74   74 74 74   74 74 74   74 74 74   74 74 74   74 74 74   74 74 74   74 74 74   74 74 74   74 74 74   74 74 74   74 74 74   74 74 74   74 74 74   74 74 74   74 74 74   
74 74 74   74 74 74   74 74 74   74 74 74   74 74 74   74 74 74   74 74 74   74 74 74   74 74 74   74 74 74   74 74 74   74 74 74   74 74 74   74 74 74   74 74 74   74 74 74   74 74 74   74 74 74   74 74 74   74 74 74   74 74 74   74 74 74   74 74 74   74 74 74   74 74 74   74 74 74   74 74 74   74 74 74   74 74 74   74 74 74   74 74 74   74 74 74   74 74 74   74 74 74   74 74 74   74 74 74   74 74 74   74 74 74   74 74 74   74 74 74   74 74 74   74 74 74   74 74 74   74 74 74   74 74 74   74 74 74   74 74 74   74 74 74   74 74 74   74 74 74   
74 74 74   74 74 74   74 74 74   74 74 74   74 74 74   74 74 74   74 74 74   74 74 74   74 74 74   74 74 74   74 74 74   74 74 74   74 74 74   74 74 74   74 74 74   74 74 74   74 74 74   74 74 74   74 74 74   74 74 74   74 74 74   74 74 74   74 74 74   74 74 74   74 74 74   74 74 74   74 74 74   74 74 74   74 74 74   74 74 74   74 74 74   74 74 74   74 74 74   74 74 74   74 74 74   74 74 74   74 74 74   74 74 74   74 74 74   74 74 74   74 74 74   74 74 74   74 74 74   74 74 74   74 74 74   74 74 74   74 74 74   74 74 74   74 74 74   74 74 74   
74 74 74   74 74 74   74 74 74   74 74 74   74 74 74   74 74 74   74 74 74   74 74 74   74 74 74   74 74 74   74 74 74   73 73 73   71 71 71   69 69 69   70 70 70   73 73 73   74 74 74   74 74 74   74 74 74   74 74 74   74 74 74   74 74 74   74 74 74   74 74 74   74 74 74   74 74 74   74 74 74   74 74 74   74 74 74   74 74 74   74 74 74   74 74 74   74 74 74   74 74 74   74 74 74   74 74 74   74 74 74   74 74 74   74 74 74   74 74 74   74 74 74   74 74 74   74 74 74   74 74 74   74 74 74   74 74 74   74 74 74   74 74 74   74 74 74   74 74 74   
74 74 74   74 74 74   74 74 74   74 74 74   74 74 74   74 74 74   74 74 74   74 74 74   74 74 74   74 74 74   73 73 73   67 67 67   47 47 47   31 31 31   37 37 37   61 61 61   72 72 72   74 74 74   74 74 74   74 74 74   74 74 74   74 74 74   74 74 74   74 74 74   74 74 74   74 74 74   74 74 74   74 74 74   74 74 74   74 74 74   73 73 73   69 69 69   65 65 65   65 65 65   71 71 71   74 74 74   74 74 74   74 74 74   74 74 74   74 74 74   74 74 74   74 74 74   74 74 74   74 74 74   74 74 74   74 74 74   74 74 74   74 74 74   74 74 74   74 74 74   
74 74 74   74 74 74   74 74 74   74 74 74   74 74 74   74 74 74   74 74 74   74 74 74   74 74 74   74 74 74   71 71 71   45 45 45   8 8 8   1 1 1   2 2 2   24 24 24   64 64 64   73 73 73   74 74 74   74 74 74   74 74 74   74 74 74   74 74 74   74 74 74   74 74 74   74 74 74   74 74 74   74 74 74   74 74 74   73 73 73   61 61 61   31 31 31   13 13 13   18 18 18   48 48 48   70 70 70   74 74 74   74 74 74   74 74 74   74 74 74   74 74 74   74 74 74   74 74 74   74 74 74   74 74 74   74 74 74   74 74 74   74 74 74   74 74 74   74 74 74   
74 74 74   74 74 74   74 74 74   74 74 74   74 74 74   74 74 74   74 74 74   74 74 74   74 74 74   74 74 74   67 67 67   23 23 23   0 0 0   0 0 0   0 0 0   5 5 5   49 49 49   72 72 72   74 74 74   74 74 74   74 74 74   74 74 74   74 74 74   74 74 74   74 74 74   74 74 74   74 74 74   74 74 74   74 74 74   69 69 69   33 33 33   1 1 1   0 0 0   0 0 0   11 11 11   57 57 57   73 73 73   74 74 74   74 74 74   74 74 74   74 74 74   74 74 74   74 74 74   74 74 74   74 74 74   74 74 74   74 74 74   74 74 74   74 74 74   74 74 74   
74 74 74   74 74 74   74 74 74   74 74 74   74 74 74   74 74 74   74 74 74   74 74 74   74 74 74   74 74 74   65 65 65   15 15 15   0 0 0   0 0 0   0 0 0   4 4 4   43 43 43   71 71 71   74 74 74   74 74 74   74 74 74   74 74 74   74 74 74   74 74 74   74 74 74   74 74 74   74 74 74   74 74 74   74 74 74   67 67 67   19 19 19   0 0 0   0 0 0   0 0 0   1 1 1   35 35 35   70 70 70   74 74 74   74 74 74   74 74 74   74 74 74   74 74 74   74 74 74   74 74 74   74 74 74   74 74 74   74 74 74   74 74 74   74 74 74   74 74 74   
74 74 74   74 74 74   74 74 74   74 74 74   74 74 74   74 74 74   74 74 74   74 74 74   74 74 74   74 74 74   69 69 69   30 30 30   1 1 1   0 0 0   0 0 0   12 12 12   53 53 53   72 72 72   74 74 74   74 74 74   74 74 74   74 74 74   74 74 74   74 74 74   74 74 74   74 74 74   74 74 74   74 74 74   74 74 74   70 70 70   34 34 34   0 0 0   0 0 0   0 0 0   1 1 1   29 29 29   68 68 68   74 74 74   74 74 74   74 74 74   74 74 74   74 74 74   74 74 74   74 74 74   74 74 74   74 74 74   74 74 74   74 74 74   74 74 74   74 74 74   
74 74 74   74 74 74   74 74 74   74 74 74   74 74 74   74 74 74   74 74 74   74 74 74   74 74 74   74 74 74   73 73 73   58 58 58   18 18 18   4 4 4   14 14 14   45 45 45   68 68 68   73 73 73   74 74 74   74 74 74   74 74 74   74 74 74   74 74 74   74 74 74   74 74 74   74 74 74   74 74 74   74 74 74   74 74 74   73 73 73   60 60 60   16 16 16   1 1 1   0 0 0   9 9 9   50 50 50   72 72 72   74 74 74   74 74 74   74 74 74   74 74 74   74 74 74   74 74 74   74 74 74   74 74 74   74 74 74   74 74 74   74 74 74   74 74 74   74 74 74   
74 74 74   74 74 74   74 74 74   74 74 74   74 74 74   74 74 74   74 74 74   74 74 74   74 74 74   74 74 74   74 74 74   72 72 72   60 60 60   45 45 45   59 59 59   70 70 70   73 73 73   74 74 74   74 74 74   74 74 74   74 74 74   74 74 74   74 74 74   74 74 74   74 74 74   74 74 74   74 74 74   74 74 74   74 74 74   74 74 74   72 72 72   58 58 58   33 33 33   28 28 28   50 50 50   70 70 70   74 74 74   74 74 74   74 74 74   74 74 74   74 74 74   74 74 74   74 74 74   74 74 74   74 74 74   74 74 74   74 74 74   74 74 74   74 74 74   74 74 74   
74 74 74   74 74 74   74 74 74   74 74 74   74 74 74   74 74 74   74 74 74   74 74 74   74 74 74   74 74 74   74 74 74   74 74 74   73 73 73   71 71 71   73 73 73   74 74 74   74 74 74   74 74 74   74 74 74   74 74 74   74 74 74   74 74 74   74 74 74   74 74 74   74 74 74   74 74 74   74 74 74   74 74 74   74 74 74   74 74 74   74 74 74   73 73 73   70 70 70   68 68 68   72 72 72   74 74 74   74 74 74   74 74 74   74 74 74   74 74 74   74 74 74   74 74 74   74 74 74   74 74 74   74 74 74   74 74 74   74 74 74   74 74 74   74 74 74   74 74 74   
74 74 74   74 74 74   74 74 74   74 74 74   74 74 74   74 74 74   74 74 74   74 74 74   74 74 74   74 74 74   74 74 74   74 74 74   74 74 74   74 74 74   74 74 74   74 74 74   74 74 74   74 74 74   74 74 74   74 74 74   74 74 74   74 74 74   74 74 74   74 74 74   74 74 74   74 74 74   74 74 74   74 74 74   74 74 74   74 74 74   74 74 74   74 74 74   74 74 74   74 74 74   74 74 74   74 74 74   74 74 74   74 74 74   74 74 74   74 74 74   74 74 74   74 74 74   74 74 74   74 74 74   74 74 74   74 74 74   74 74 74   74 74 74   74 74 74   74 74 74   
74 74 74   74 74 74   74 74 74   74 74 74   74 74 74   74 74 74   74 74 74   74 74 74   74 74 74   74 74 74   74 74 74   74 74 74   74 74 74   74 74 74   74 74 74   74 74 74   74 74 74   74 74 74   74 74 74   74 74 74   74 74 74   74 74 74   74 74 74   74 74 74   74 74 74   74 74 74   74 74 74   74 74 74   74 74 74   74 74 74   74 74 74   74 74 74   74 74 74   74 74 74   74 74 74   74 74 74   74 74 74   74 74 74   74 74 74   74 74 74   74 74 74   74 74 74   74 74 74   74 74 74   74 74 74   74 74 74   74 74 74   74 74 74   74 74 74   74 74 74   
74 74 74   74 74 74   74 74 74   74 74 74   74 74 74   74 74 74   74 74 74   74 74 74   74 74 74   74 74 74   74 74 74   74 74 74   74 74 74   74 74 74   74 74 74   74 74 74   74 74 74   74 74 74   74 74 74   74 74 74   74 74 74   74 74 74   74 74 74   74 74 74   74 74 74   74 74 74   74 74 74   74 74 74   74 74 74   74 74 74   74 74 74   74 74 74   74 74 74   74 74 74   74 74 74   74 74 74   74 74 74   74 74 74   74 74 74   74 74 74   74 74 74   74 74 74   74 74 74   74 74 74   74 74 74   74 74 74   74 74 74   74 74 74   74 74 74   74 74 74   
74 74 74   74 74 74   74 74 74   74 74 74   74 74 74   74 74 74   74 74 74   74 74 74   74 74 74   74 74 74   74 74 74   74 74 74   74 74 74   74 74 74   74 74 74   74 74 74   74 74 74   74 74 74   74 74 74   74 74 74   74 74 74   74 74 74   74 74 74   74 74 74   74 74 74   74 74 74   74 74 74   74 74 74   74 74 74   74 74 74   74 74 74   74 74 74   74 74 74   74 74 74   74 74 74   74 74 74   74 74 74   74 74 74   74 74 74   74 74 74   74 74 74   74 74 74   74 74 74   74 74 74   74 74 74   74 74 74   74 74 74   74 74 74   74 74 74   74 74 74   
74 74 74   74 74 74   74 74 74   74 74 74   74 74 74   74 74 74   74 74 74   74 74 74   74 74 74   74 74 74   74 74 74   74 74 74   74 74 74   74 74 74   74 74 74   74 74 74   74 74 74   74 74 74   74 74 74   74 74 74   74 74 74   74 74 74   74 74 74   74 74 74   74 74 74   74 74 74   74 74 74   74 74 74   74 74 74   74 74 74   74 74 74   74 74 74   74 74 74   74 74 74   74 74 74   74 74 74   74 74 74   74 74 74   74 74 74   74 74 74   74 74 74   74 74 74   74 74 74   74 74 74   74 74 74   74 74 74   74 74 74   74 74 74   74 74 74   74 74 74   
74 74 74   74 74 74   74 74 74   74 74 74   74 74 74   74 74 74   74 74 74   74 74 74   74 74 74   74 74 74   74 74 74   74 74 74   74 74 74   74 74 74   74 74 74   74 74 74   74 74 74   74 74 74   74 74 74   74 74 74   74 74 74   74 74 74   74 74 74   74 74 74   74 74 74   74 74 74   74 74 74   74 74 74   74 74 74   74 74 74   74 74 74   74 74 74   74 74 74   74 74 74   74 74 74   74 74 74   74 74 74   74 74 74   74 74 74   74 74 74   74 74 74   74 74 74   74 74 74   74 74 74   74 74 74   74 74 74   74 74 74   74 74 74   74 74 74   74 74 74   
74 74 74   74 74 74   74 74 74   73 73 73   72 72 72   72 72 72   73 73 73   74 74 74   74 74 74   74 74 74   74 74 74   74 74 74   74 74 74   74 74 74   74 74 74   74 74 74   74 74 74   74 74 74   74 74 74   74 74 74   74 74 74   74 74 74   74 74 74   74 74 74   74 74 74   74 74 74   74 74 74   74 74 74   74 74 74   74 74 74   74 74 74   74 74 74   74 74 74   74 74 74   74 74 74   74 74 74   74 74 74   74 74 74   74 74 74   74 74 74   74 74 74   74 74 74   74 74 74   74 74 74   74 74 74   74 74 74   74 74 74   74 74 74   74 74 74   74 74 74   
74 74 74   74 74 74   73 73 73   71 71 71   61 61 61   51 51 51   64 64 64   73 73 73   74 74 74   74 74 74   74 74 74   74 74 74   74 74 74   74 74 74   74 74 74   74 74 74   74 74 74   74 74 74   74 74 74   74 74 74   74 74 74   74 74 74   74 74 74   74 74 74   74 74 74   74 74 74   74 74 74   74 74 74   74 74 74   74 74 74   74 74 74   74 74 74   74 74 74   74 74 74   74 74 74   74 74 74   74 74 74   74 74 74   74 74 74   74 74 74   74 74 74   74 74 74   74 74 74   74 74 74   74 74 74   74 74 74   74 74 74   74 74 74   74 74 74   74 74 74   
74 74 74   74 74 74   73 73 73   64 64 64   32 32 32   12 12 12   34 34 34   65 65 65   73 73 73   74 74 74   74 74 74   74 74 74   74 74 74   74 74 74   74 74 74   74 74 74   74 74 74   74 74 74   74 74 74   74 74 74   74 74 74   74 74 74   74 74 74   74 74 74   74 74 74   74 74 74   74 74 74   74 74 74   74 74 74   74 74 74   74 74 74   74 74 74   74 74 74   74 74 74   74 74 74   74 74 74   74 74 74   74 74 74   74 74 74   74 74 74   74 74 74   74 74 74   74 74 74   74 74 74   74 74 74   74 74 74   74 74 74   74 74 74   74 74 74   74 74 74   
74 74 74   74 74 74   73 73 73   61 61 61   20 20 20   2 2 2   12 12 12   51 51 51   72 72 72   74 74 74   74 74 74   74 74 74   74 74 74   74 74 74   74 74 74   74 74 74   74 74 74   74 74 74   74 74 74   74 74 74   74 74 74   74 74 74   74 74 74   74 74 74   74 74 74   74 74 74   74 74 74   74 74 74   74 74 74   74 74 74   74 74 74   74 74 74   74 74 74   74 74 74   74 74 74   74 74 74   74 74 74   74 74 74   74 74 74   74 74 74   74 74 74   74 74 74   74 74 74   74 74 74   73 73 73   70 70 70   68 68 68   72 72 72   74 74 74   74 74 74   
74 74 74   74 74 74   73 73 73   67 67 67   33 33 33   5 5 5   6 6 6   36 36 36   68 68 68   74 74 74   74 74 74   74 74 74   74 74 74   74 74 74   74 74 74   74 74 74   74 74 74   74 74 74   74 74 74   74 74 74   74 74 74   74 74 74   74 74 74   74 74 74   74 74 74   74 74 74   74 74 74   74 74 74   74 74 74   74 74 74   74 74 74   74 74 74   74 74 74   74 74 74   74 74 74   74 74 74   74 74 74   74 74 74   74 74 74   74 74 74   74 74 74   74 74 74   74 74 74   72 72 72   60 60 60   38 38 38   30 30 30   56 56 56   72 72 72   74 74 74   
74 74 74   74 74 74   74 74 74   72 72 72   51 51 51   13 13 13   2 2 2   13 13 13   48 48 48   70 70 70   74 74 74   74 74 74   74 74 74   74 74 74   74 74 74   74 74 74   74 74 74   74 74 74   74 74 74   74 74 74   74 74 74   74 74 74   74 74 74   74 74 74   74 74 74   74 74 74   74 74 74   74 74 74   74 74 74   74 74 74   74 74 74   74 74 74   74 74 74   74 74 74   74 74 74   74 74 74   74 74 74   74 74 74   74 74 74   74 74 74   74 74 74   74 74 74   71 71 71   57 57 57   25 25 25   6 6 6   2 2 2   33 33 33   69 69 69   74 74 74   
74 74 74   74 74 74   74 74 74   73 73 73   64 64 64   26 26 26   2 2 2   1 1 1   13 13 13   48 48 48   68 68 68   73 73 73   74 74 74   74 74 74   74 74 74   74 74 74   74 74 74   74 74 74   74 74 74   74 74 74   74 74 74   74 74 74   74 74 74   74 74 74   74 74 74   74 74 74   74 74 74   74 74 74   74 74 74   74 74 74   74 74 74   74 74 74   74 74 74   74 74 74   74 74 74   74 74 74   74 74 74   74 74 74   74 74 74   74 74 74   74 74 74   71 71 71   51 51 51   21 21 21   6 6 6   3 3 3   15 15 15   52 52 52   72 72 72   74 74 74   
74 74 74   74 74 74   74 74 74   74 74 74   72 72 72   54 54 54   17 17 17   3 3 3   2 2 2   12 12 12   36 36 36   60 60 60   71 71 71   74 74 74   74 74 74   74 74 74   74 74 74   74 74 74   74 74 74   74 74 74   74 74 74   74 74 74   74 74 74   74 74 74   74 74 74   74 74 74   74 74 74   74 74 74   74 74 74   74 74 74   74 74 74   74 74 74   74 74 74   74 74 74   74 74 74   74 74 74   74 74 74   74 74 74   74 74 74   73 73 73   71 71 71   53 53 53   16 16 16   2 2 2   6 6 6   21 21 21   50 50 50   70 70 70   74 74 74   74 74 74   
74 74 74   74 74 74   74 74 74   74 74 74   74 74 74   71 71 71   54 54 54   21 21 21   5 5 5   1 1 1   7 7 7   23 23 23   52 52 52   68 68 68   72 72 72   73 73 73   74 74 74   74 74 74   74 74 74   74 74 74   74 74 74   74 74 74   74 74 74   74 74 74   74 74 74   74 74 74   74 74 74   74 74 74   74 74 74   74 74 74   74 74 74   74 74 74   74 74 74   74 74 74   74 74 74   74 74 74   74 74 74   73 73 73   70 70 70   63 63 63   50 50 50   23 23 23   3 3 3   2 2 2   18 18 18   55 55 55   71 71 71   74 74 74   74 74 74   74 74 74   
74 74 74   74 74 74   74 74 74   74 74 74   74 74 74   74 74 74   72 72 72   59 59 59   36 36 36   17 17 17   7 7 7   3 3 3   14 14 14   35 35 35   52 52 52   62 62 62   67 67 67   70 70 70   72 72 72   73 73 73   74 74 74   74 74 74   74 74 74   74 74 74   74 74 74   74 74 74   74 74 74   74 74 74   74 74 74   74 74 74   74 74 74   74 74 74   74 74 74   74 74 74   74 74 74   73 73 73   70 70 70   59 59 59   40 40 40   24 24 24   13 13 13   6 6 6   3 3 3   15 15 15   50 50 50   71 71 71   74 74 74   74 74 74   74 74 74   74 74 74   
74 74 74   74 74 74   74 74 74   74 74 74   74 74 74   74 74 74   74 74 74   73 73 73   69 69 69   56 56 56   24 24 24   3 3 3   2 2 2   6 6 6   12 12 12   18 18 18   27 27 27   38 38 38   52 52 52   63 63 63   69 69 69   70 70 70   70 70 70   70 70 70   70 70 70   70 70 70   70 70 70   70 70 70   70 70 70   70 70 70   70 70 70   70 70 70   70 70 70   70 70 70   69 69 69   63 63 63   45 45 45   19 19 19   7 7 7   3 3 3   3 3 3   8 8 8   23 23 23   53 53 53   70 70 70   74 74 74   74 74 74   74 74 74   74 74 74   74 74 74   
74 74 74   74 74 74   74 74 74   74 74 74   74 74 74   74 74 74   74 74 74   74 74 74   74 74 74   72 72 72   55 55 55   22 22 22   6 6 6   5 5 5   2 2 2   1 1 1   3 3 3   7 7 7   13 13 13   24 24 24   35 35 35   38 38 38   38 38 38   38 38 38   38 38 38   38 38 38   38 38 38   38 38 38   38 38 38   38 38 38   38 38 38   38 38 38   38 38 38   38 38 38   35 35 35   23 23 23   10 10 10   1 1 1   6 6 6   13 13 13   24 24 24   40 40 40   60 60 60   71 71 71   74 74 74   74 74 74   74 74 74   74 74 74   74 74 74   74 74 74   
74 74 74   74 74 74   74 74 74   74 74 74   74 74 74   74 74 74   74 74 74   74 74 74   74 74 74   74 74 74   72 72 72   60 60 60   42 42 42   35 35 35   26 26 26   19 19 19   12 12 12   7 7 7   3 3 3   3 3 3   6 6 6   7 7 7   7 7 7   7 7 7   7 7 7   7 7 7   7 7 7   7 7 7   7 7 7   7 7 7   7 7 7   7 7 7   7 7 7   7 7 7   6 6 6   3 3 3   4 4 4   15 15 15   35 35 35   52 52 52   63 63 63   70 70 70   73 73 73   74 74 74   74 74 74   74 74 74   74 74 74   74 74 74   74 74 74   74 74 74   
74 74 74   74 74 74   74 74 74   74 74 74   74 74 74   74 74 74   74 74 74   74 74 74   74 74 74   74 74 74   74 74 74   73 73 73   70 70 70   69 69 69   67 67 67   62 62 62   52 52 52   38 38 38   24 24 24   13 13 13   8 8 8   7 7 7   7 7 7   7 7 7   7 7 7   7 7 7   7 7 7   7 7 7   7 7 7   7 7 7   7 7 7   7 7 7   7 7 7   7 7 7   8 8 8   13 13 13   28 28 28   53 53 53   68 68 68   72 72 72   73 73 73   74 74 74   74 74 74   74 74 74   74 74 74   74 74 74   74 74 74   74 74 74   74 74 74   74 74 74   
74 74 74   74 74 74   74 74 74   74 74 74   74 74 74   74 74 74   74 74 74   74 74 74   74 74 74   74 74 74   74 74 74   74 74 74   74 74 74   74 74 74   74 74 74   73 73 73   72 72 72   69 69 69   63 63 63   53 53 53   41 41 41   38 38 38   38 38 38   38 38 38   38 38 38   38 38 38   38 38 38   38 38 38   38 38 38   38 38 38   38 38 38   38 38 38   38 38 38   38 38 38   42 42 42   53 53 53   64 64 64   72 72 72   74 74 74   74 74 74   74 74 74   74 74 74   74 74 74   74 74 74   74 74 74   74 74 74   74 74 74   74 74 74   74 74 74   74 74 74   
74 74 74   74 74 74   74 74 74   74 74 74   74 74 74   74 74 74   74 74 74   74 74 74   74 74 74   74 74 74   74 74 74   74 74 74   74 74 74   74 74 74   74 74 74   74 74 74   74 74 74   74 74 74   73 73 73   72 72 72   70 70 70   70 70 70   70 70 70   70 70 70   70 70 70   70 70 70   70 70 70   70 70 70   70 70 70   70 70 70   70 70 70   70 70 70   70 70 70   70 70 70   70 70 70   72 72 72   73 73 73   74 74 74   74 74 74   74 74 74   74 74 74   74 74 74   74 74 74   74 74 74   74 74 74   74 74 74   74 74 74   74 74 74   74 74 74   74 74 74   
74 74 74   74 74 74   74 74 74   74 74 74   74 74 74   74 74 74   74 74 74   74 74 74   74 74 74   74 74 74   74 74 74   74 74 74   74 74 74   74 74 74   74 74 74   74 74 74   74 74 74   74 74 74   74 74 74   74 74 74   74 74 74   74 74 74   74 74 74   74 74 74   74 74 74   74 74 74   74 74 74   74 74 74   74 74 74   74 74 74   74 74 74   74 74 74   74 74 74   74 74 74   74 74 74   74 74 74   74 74 74   74 74 74   74 74 74   74 74 74   74 74 74   74 74 74   74 74 74   74 74 74   74 74 74   74 74 74   74 74 74   74 74 74   74 74 74   74 74 74   
74 74 74   74 74 74   74 74 74   74 74 74   74 74 74   74 74 74   74 74 74   74 74 74   74 74 74   74 74 74   74 74 74   74 74 74   74 74 74   74 74 74   74 74 74   74 74 74   74 74 74   74 74 74   74 74 74   74 74 74   74 74 74   74 74 74   74 74 74   74 74 74   74 74 74   74 74 74   74 74 74   74 74 74   74 74 74   74 74 74   74 74 74   74 74 74   74 74 74   74 74 74   74 74 74   74 74 74   74 74 74   74 74 74   74 74 74   74 74 74   74 74 74   74 74 74   74 74 74   74 74 74   74 74 74   74 74 74   74 74 74   74 74 74   74 74 74   74 74 74   
74 74 74   74 74 74   74 74 74   74 74 74   74 74 74   74 74 74   74 74 74   74 74 74   74 74 74   74 74 74   74 74 74   74 74 74   74 74 74   74 74 74   74 74 74   74 74 74   74 74 74   74 74 74   74 74 74   74 74 74   74 74 74   74 74 74   74 74 74   74 74 74   74 74 74   74 74 74   74 74 74   74 74 74   74 74 74   74 74 74   74 74 74   74 74 74   74 74 74   74 74 74   74 74 74   74 74 74   74 74 74   74 74 74   74 74 74   74 74 74   74 74 74   74 74 74   74 74 74   74 74 74   74 74 74   74 74 74   74 74 74   74 74 74   74 74 74   74 74 74   
74 74 74   74 74 74   74 74 74   74 74 74   74 74 74   74 74 74   74 74 74   74 74 74   74 74 74   74 74 74   74 74 74   74 74 74   74 74 74   74 74 74   74 74 74   74 74 74   74 74 74   74 74 74   74 74 74   74 74 74   74 74 74   74 74 74   74 74 74   74 74 74   74 74 74   74 74 74   74 74 74   74 74 74   74 74 74   74 74 74   74 74 74   74 74 74   74 74 74   74 74 74   74 74 74   74 74 74   74 74 74   74 74 74   74 74 74   74 74 74   74 74 74   74 74 74   74 74 74   74 74 74   74 74 74   74 74 74   74 74 74   74 74 74   74 74 74   74 74 74   
74 74 74   74 74 74   74 74 74   74 74 74   74 74 74   74 74 74   74 74 74   74 74 74   74 74 74   74 74 74   74 74 74   74 74 74   74 74 74   74 74 74   74 74 74   74 74 74   74 74 74   74 74 74   74 74 74   74 74 74   74 74 74   74 74 74   74 74 74   74 74 74   74 74 74   74 74 74   74 74 74   74 74 74   74 74 74   74 74 74   74 74 74   74 74 74   74 74 74   74 74 74   74 74 74   74 74 74   74 74 74   74 74 74   74 74 74   74 74 74   74 74 74   74 74 74   74 74 74   74 74 74   74 74 74   74 74 74   74 74 74   74 74 74   74 74 74   74 74 74   
74 74 74   74 74 74   74 74 74   74 74 74   74 74 74   74 74 74   74 74 74   74 74 74   74 74 74   74 74 74   74 74 74   74 74 74   74 74 74   74 74 74   74 74 74   74 74 74   74 74 74   74 74 74   74 74 74   74 74 74   74 74 74   74 74 74   74 74 74   74 74 74   74 74 74   74 74 74   74 74 74   74 74 74   74 74 74   74 74 74   74 74 74   74 74 74   74 74 74   74 74 74   74 74 74   74 74 74   74 74 74   74 74 74   74 74 74   74 74 74   74 74 74   74 74 74   74 74 74   74 74 74   74 74 74   74 74 74   74 74 74   74 74 74   74 74 74   74 74 74   
74 74 74   74 74 74   74 74 74   74 74 74   74 74 74   74 74 74   74 74 74   74 74 74   74 74 74   74 74 74   74 74 74   74 74 74   74 74 74   74 74 74   74 74 74   74 74 74   74 74 74   74 74 74   74 74 74   74 74 74   74 74 74   74 74 74   74 74 74   74 74 74   74 74 74   74 74 74   74 74 74   74 74 74   74 74 74   74 74 74   74 74 74   74 74 74   74 74 74   74 74 74   74 74 74   74 74 74   74 74 74   74 74 74   74 74 74   74 74 74   74 74 74   74 74 74   74 74 74   74 74 74   74 74 74   74 74 74   74 74 74   74 74 74   74 74 74   74 74 74   
74 74 74   74 74 74   74 74 74   74 74 74   74 74 74   74 74 74   74 74 74   74 74 74   74 74 74   74 74 74   74 74 74   74 74 74   74 74 74   74 74 74   74 74 74   74 74 74   74 74 74   74 74 74   74 74 74   74 74 74   74 74 74   74 74 74   74 74 74   74 74 74   74 74 74   74 74 74   74 74 74   74 74 74   74 74 74   74 74 74   74 74 74   74 74 74   74 74 74   74 74 74   74 74 74   74 74 74   74 74 74   74 74 74   74 74 74   74 74 74   74 74 74   74 74 74   74 74 74   74 74 74   74 74 74   74 74 74   74 74 74   74 74 74   74 74 74   74 74 74   
74 74 74   74 74 74   74 74 74   74 74 74   74 74 74   74 74 74   74 74 74   74 74 74   74 74 74   74 74 74   74 74 74   74 74 74   74 74 74   74 74 74   74 74 74   74 74 74   74 74 74   74 74 74   74 74 74   74 74 74   74 74 74   74 74 74   74 74 74   74 74 74   74 74 74   74 74 74   74 74 74   74 74 74   74 74 74   74 74 74   74 74 74   74 74 74   74 74 74   74 74 74   74 74 74   74 74 74   74 74 74   74 74 74   74 74 74   74 74 74   74 74 74   74 74 74   74 74 74   74 74 74   74 74 74   74 74 74   74 74 74   74 74 74   74 74 74   74 74 74   
