P3
# CREATOR: GIMP PNM Filter Version 1.1
50 50
255
252
255
0
252
255
0
252
255
0
252
255
0
252
255
0
252
255
0
252
255
0
252
255
0
252
255
0
252
255
0
252
255
0
252
255
0
252
255
0
252
255
0
252
255
0
252
255
0
252
255
0
252
255
0
252
255
0
252
255
0
252
255
0
252
255
0
252
255
0
252
255
0
252
255
0
252
255
0
252
255
0
252
255
0
252
255
0
252
255
0
252
255
0
252
255
0
252
255
0
252
255
0
252
255
0
252
255
0
252
255
0
252
255
0
252
255
0
252
255
0
252
255
0
252
255
0
252
255
0
252
255
0
252
255
0
252
255
0
252
255
0
252
255
0
252
255
0
252
255
0
252
255
0
252
255
0
252
255
0
252
255
0
252
255
0
252
255
0
252
255
0
252
255
0
252
255
0
252
255
0
252
255
0
252
255
0
252
255
0
252
255
0
252
255
0
252
255
0
252
255
0
252
255
0
252
255
0
252
255
0
252
255
0
252
255
0
252
255
0
252
255
0
252
255
0
252
255
0
252
255
0
252
255
0
252
255
0
252
255
0
252
255
0
252
255
0
252
255
0
252
255
0
252
255
0
252
255
0
252
255
0
252
255
0
252
255
0
252
255
0
252
255
0
252
255
0
252
255
0
252
255
0
252
255
0
252
255
0
252
255
0
252
255
0
252
255
0
252
255
0
252
255
0
252
255
0
252
255
0
252
255
0
252
255
0
252
255
0
252
255
0
252
255
0
252
255
0
252
255
0
252
255
0
252
255
0
252
255
0
252
255
0
252
255
0
252
255
0
252
255
0
252
255
0
252
255
0
252
255
0
252
255
0
252
255
0
252
255
0
252
255
0
252
255
0
252
255
0
252
255
0
252
255
0
252
255
0
252
255
0
252
255
0
252
255
0
252
255
0
252
255
0
252
255
0
252
255
0
252
255
0
252
255
0
252
255
0
252
255
0
252
255
0
252
255
0
252
255
0
252
255
0
252
255
0
252
255
0
252
255
0
252
255
0
252
255
0
252
255
0
252
255
0
252
255
0
252
255
0
252
255
0
252
255
0
252
255
0
252
255
0
252
255
0
252
255
0
252
255
0
252
255
0
252
255
0
252
255
0
252
255
0
252
255
0
252
255
0
252
255
0
252
255
0
252
255
0
252
255
0
252
255
0
252
255
0
252
255
0
252
255
0
252
255
0
252
255
0
252
255
0
252
255
0
252
255
0
252
255
0
252
255
0
252
255
0
252
255
0
252
255
0
252
255
0
252
255
0
252
255
0
252
255
0
252
255
0
252
255
0
252
255
0
252
255
0
252
255
0
252
255
0
252
255
0
252
255
0
252
255
0
252
255
0
252
255
0
252
255
0
252
255
0
252
255
0
252
255
0
252
255
0
252
255
0
252
255
0
252
255
0
252
255
0
252
255
0
252
255
0
252
255
0
252
255
0
252
255
0
252
255
0
252
255
0
252
255
0
252
255
0
252
255
0
252
255
0
252
255
0
252
255
0
252
255
0
252
255
0
252
255
0
252
255
0
252
255
0
252
255
0
252
255
0
252
255
0
252
255
0
252
255
0
252
255
0
252
255
0
252
255
0
252
255
0
252
255
0
252
255
0
252
255
0
252
255
0
252
255
0
252
255
0
252
255
0
252
255
0
252
255
0
252
255
0
252
255
0
252
255
0
252
255
0
252
255
0
252
255
0
252
255
0
252
255
0
252
255
0
252
255
0
252
255
0
252
255
0
252
255
0
252
255
0
252
255
0
252
255
0
252
255
0
252
255
0
252
255
0
252
255
0
252
255
0
252
255
0
252
255
0
252
255
0
252
255
0
252
255
0
252
255
0
252
255
0
252
255
0
252
255
0
252
255
0
252
255
0
252
255
0
252
255
0
252
255
0
252
255
0
252
255
0
252
255
0
252
255
0
252
255
0
252
255
0
252
255
0
252
255
0
252
255
0
252
255
0
252
255
0
252
255
0
252
255
0
252
255
0
252
255
0
252
255
0
252
255
0
252
255
0
252
255
0
252
255
0
252
255
0
252
255
0
252
255
0
252
255
0
252
255
0
252
255
0
252
255
0
252
255
0
252
255
0
252
255
0
252
255
0
252
255
0
252
255
0
252
255
0
252
255
0
252
255
0
252
255
0
252
255
0
252
255
0
252
255
0
252
255
0
252
255
0
252
255
0
252
255
0
252
255
0
252
255
0
252
255
0
252
255
0
252
255
0
252
255
0
252
255
0
252
255
0
252
255
0
252
255
0
252
255
0
252
255
0
252
255
0
252
255
0
252
255
0
252
255
0
252
255
0
252
255
0
252
255
0
252
255
0
252
255
0
252
255
0
252
255
0
252
255
0
252
255
0
252
255
0
252
255
0
252
255
0
252
255
0
252
255
0
252
255
0
252
255
0
252
255
0
252
255
0
252
255
0
252
255
0
252
255
0
252
255
0
252
255
0
252
255
0
252
255
0
252
255
0
252
255
0
252
255
0
252
255
0
252
255
0
252
255
0
252
255
0
252
255
0
252
255
0
252
255
0
252
255
0
252
255
0
252
255
0
252
255
0
252
255
0
252
255
0
252
255
0
252
255
0
252
255
0
252
255
0
252
255
0
252
255
0
252
255
0
252
255
0
252
255
0
252
255
0
252
255
0
252
255
0
252
255
0
252
255
0
252
255
0
252
255
0
252
255
0
252
255
0
252
255
0
252
255
0
252
255
0
252
255
0
252
255
0
252
255
0
252
255
0
252
255
0
252
255
0
252
255
0
252
255
0
252
255
0
252
255
0
252
255
0
252
255
0
252
255
0
252
255
0
252
255
0
252
255
0
252
255
0
252
255
0
252
255
0
252
255
0
252
255
0
252
255
0
252
255
0
252
255
0
252
255
0
252
255
0
252
255
0
252
255
0
252
255
0
252
255
0
252
255
0
252
255
0
252
255
0
252
255
0
252
255
0
252
255
0
252
255
0
252
255
0
252
255
0
252
255
0
252
255
0
252
255
0
252
255
0
252
255
0
252
255
0
252
255
0
252
255
0
252
255
0
252
255
0
252
255
0
252
255
0
252
255
0
252
255
0
252
255
0
252
255
0
252
255
0
252
255
0
252
255
0
252
255
0
252
255
0
252
255
0
252
255
0
252
255
0
252
255
0
252
255
0
252
255
0
252
255
0
252
255
0
252
255
0
252
255
0
252
255
0
252
255
0
252
255
0
252
255
0
252
255
0
252
255
0
252
255
0
252
255
0
252
255
0
252
255
0
252
255
0
252
255
0
252
255
0
252
255
0
252
255
0
252
255
0
252
255
0
252
255
0
252
255
0
252
255
0
252
255
0
252
255
0
252
255
0
252
255
0
252
255
0
252
255
0
252
255
0
252
255
0
252
255
0
252
255
0
252
255
0
252
255
0
252
255
0
252
255
0
252
255
0
252
255
0
252
255
0
252
255
0
252
255
0
252
255
0
251
254
1
244
248
8
236
241
16
240
244
12
249
252
3
252
255
0
252
255
0
252
255
0
252
255
0
252
255
0
252
255
0
252
255
0
252
255
0
252
255
0
252
255
0
252
255
0
252
255
0
252
255
0
252
255
0
252
255
0
252
255
0
252
255
0
252
255
0
252
255
0
252
255
0
252
255
0
252
255
0
252
255
0
252
255
0
252
255
0
252
255
0
252
255
0
252
255
0
252
255
0
252
255
0
252
255
0
252
255
0
252
255
0
252
255
0
252
255
0
252
255
0
252
255
0
252
255
0
252
255
0
252
255
0
252
255
0
252
255
0
252
255
0
252
255
0
251
254
1
228
234
24
160
173
93
107
125
147
126
142
128
208
215
45
248
251
4
252
255
0
252
255
0
252
255
0
252
255
0
252
255
0
252
255
0
252
255
0
252
255
0
252
255
0
252
255
0
252
255
0
252
255
0
252
255
0
249
252
3
236
241
16
221
228
31
224
230
28
244
248
8
252
255
0
252
255
0
252
255
0
252
255
0
252
255
0
252
255
0
252
255
0
252
255
0
252
255
0
252
255
0
252
255
0
252
255
0
252
255
0
252
255
0
252
255
0
252
255
0
252
255
0
252
255
0
252
255
0
252
255
0
252
255
0
252
255
0
252
255
0
252
255
0
252
255
0
244
248
8
156
169
97
28
55
227
4
34
251
8
37
247
83
104
171
219
226
33
251
254
1
252
255
0
252
255
0
252
255
0
252
255
0
252
255
0
252
255
0
252
255
0
252
255
0
252
255
0
252
255
0
252
255
0
249
252
3
209
216
44
105
124
149
47
72
207
62
86
192
163
176
90
241
245
11
252
255
0
252
255
0
252
255
0
252
255
0
252
255
0
252
255
0
252
255
0
252
255
0
252
255
0
252
255
0
252
255
0
252
255
0
252
255
0
252
255
0
252
255
0
252
255
0
252
255
0
252
255
0
252
255
0
252
255
0
252
255
0
252
255
0
252
255
0
252
255
0
230
236
22
80
101
174
2
32
253
0
30
255
1
31
254
18
46
237
169
181
84
246
250
6
252
255
0
252
255
0
252
255
0
252
255
0
252
255
0
252
255
0
252
255
0
252
255
0
252
255
0
252
255
0
252
255
0
236
241
16
112
130
142
6
35
249
1
31
254
1
31
254
38
64
217
194
203
59
249
252
3
252
255
0
252
255
0
252
255
0
252
255
0
252
255
0
252
255
0
252
255
0
252
255
0
252
255
0
252
255
0
252
255
0
252
255
0
252
255
0
252
255
0
252
255
0
252
255
0
252
255
0
252
255
0
252
255
0
252
255
0
252
255
0
252
255
0
252
255
0
222
229
30
52
77
202
1
31
254
0
30
255
1
31
254
16
44
239
146
161
107
242
246
10
252
255
0
252
255
0
252
255
0
252
255
0
252
255
0
252
255
0
252
255
0
252
255
0
252
255
0
252
255
0
252
255
0
228
234
24
67
90
187
1
31
254
0
30
255
0
30
255
6
35
249
121
138
133
238
243
14
252
255
0
252
255
0
252
255
0
252
255
0
252
255
0
252
255
0
252
255
0
252
255
0
252
255
0
252
255
0
252
255
0
252
255
0
252
255
0
252
255
0
252
255
0
252
255
0
252
255
0
252
255
0
252
255
0
252
255
0
252
255
0
252
255
0
252
255
0
235
240
17
103
122
151
4
34
251
0
30
255
2
32
253
42
67
213
183
193
70
246
250
6
252
255
0
252
255
0
252
255
0
252
255
0
252
255
0
252
255
0
252
255
0
252
255
0
252
255
0
252
255
0
252
255
0
240
244
12
117
134
137
2
32
253
0
30
255
0
30
255
3
33
252
99
118
155
233
238
19
252
255
0
252
255
0
252
255
0
252
255
0
252
255
0
252
255
0
252
255
0
252
255
0
252
255
0
252
255
0
252
255
0
252
255
0
252
255
0
252
255
0
252
255
0
252
255
0
252
255
0
252
255
0
252
255
0
252
255
0
252
255
0
252
255
0
252
255
0
249
252
3
198
206
55
64
87
190
15
43
240
48
73
206
156
169
97
232
237
20
251
254
1
252
255
0
252
255
0
252
255
0
252
255
0
252
255
0
252
255
0
252
255
0
252
255
0
252
255
0
252
255
0
252
255
0
250
253
2
207
214
46
55
79
199
3
33
252
2
32
253
32
58
223
173
184
80
246
250
6
252
255
0
252
255
0
252
255
0
252
255
0
252
255
0
252
255
0
252
255
0
252
255
0
252
255
0
252
255
0
252
255
0
252
255
0
252
255
0
252
255
0
252
255
0
252
255
0
252
255
0
252
255
0
252
255
0
252
255
0
252
255
0
252
255
0
252
255
0
252
255
0
246
250
6
205
213
48
155
169
98
201
209
52
241
245
11
251
254
1
252
255
0
252
255
0
252
255
0
252
255
0
252
255
0
252
255
0
252
255
0
252
255
0
252
255
0
252
255
0
252
255
0
252
255
0
252
255
0
247
251
5
200
208
53
113
131
141
96
116
158
173
184
80
240
244
12
252
255
0
252
255
0
252
255
0
252
255
0
252
255
0
252
255
0
252
255
0
252
255
0
252
255
0
252
255
0
252
255
0
252
255
0
252
255
0
252
255
0
252
255
0
252
255
0
252
255
0
252
255
0
252
255
0
252
255
0
252
255
0
252
255
0
252
255
0
252
255
0
252
255
0
252
255
0
249
252
3
244
248
8
249
252
3
252
255
0
252
255
0
252
255
0
252
255
0
252
255
0
252
255
0
252
255
0
252
255
0
252
255
0
252
255
0
252
255
0
252
255
0
252
255
0
252
255
0
252
255
0
252
255
0
249
252
3
238
243
14
233
238
19
246
250
6
252
255
0
252
255
0
252
255
0
252
255
0
252
255
0
252
255
0
252
255
0
252
255
0
252
255
0
252
255
0
252
255
0
252
255
0
252
255
0
252
255
0
252
255
0
252
255
0
252
255
0
252
255
0
252
255
0
252
255
0
252
255
0
252
255
0
252
255
0
252
255
0
252
255
0
252
255
0
252
255
0
252
255
0
252
255
0
252
255
0
252
255
0
252
255
0
252
255
0
252
255
0
252
255
0
252
255
0
252
255
0
252
255
0
252
255
0
252
255
0
252
255
0
252
255
0
252
255
0
252
255
0
252
255
0
252
255
0
252
255
0
252
255
0
252
255
0
252
255
0
252
255
0
252
255
0
252
255
0
252
255
0
252
255
0
252
255
0
252
255
0
252
255
0
252
255
0
252
255
0
252
255
0
252
255
0
252
255
0
252
255
0
252
255
0
252
255
0
252
255
0
252
255
0
252
255
0
252
255
0
252
255
0
252
255
0
252
255
0
252
255
0
252
255
0
252
255
0
252
255
0
252
255
0
252
255
0
252
255
0
252
255
0
252
255
0
252
255
0
252
255
0
252
255
0
252
255
0
252
255
0
252
255
0
252
255
0
252
255
0
252
255
0
252
255
0
252
255
0
252
255
0
252
255
0
252
255
0
252
255
0
252
255
0
252
255
0
252
255
0
252
255
0
252
255
0
252
255
0
252
255
0
252
255
0
252
255
0
252
255
0
252
255
0
252
255
0
252
255
0
252
255
0
252
255
0
252
255
0
252
255
0
252
255
0
252
255
0
252
255
0
252
255
0
252
255
0
252
255
0
252
255
0
252
255
0
252
255
0
252
255
0
252
255
0
252
255
0
252
255
0
252
255
0
252
255
0
252
255
0
252
255
0
252
255
0
252
255
0
252
255
0
252
255
0
252
255
0
252
255
0
252
255
0
252
255
0
252
255
0
252
255
0
252
255
0
252
255
0
252
255
0
252
255
0
252
255
0
252
255
0
252
255
0
252
255
0
252
255
0
252
255
0
252
255
0
252
255
0
252
255
0
252
255
0
252
255
0
252
255
0
252
255
0
252
255
0
252
255
0
252
255
0
252
255
0
252
255
0
252
255
0
252
255
0
252
255
0
252
255
0
252
255
0
252
255
0
252
255
0
252
255
0
252
255
0
252
255
0
252
255
0
252
255
0
252
255
0
252
255
0
252
255
0
252
255
0
252
255
0
252
255
0
252
255
0
252
255
0
252
255
0
252
255
0
252
255
0
252
255
0
252
255
0
252
255
0
252
255
0
252
255
0
252
255
0
252
255
0
252
255
0
252
255
0
252
255
0
252
255
0
252
255
0
252
255
0
252
255
0
252
255
0
252
255
0
252
255
0
252
255
0
252
255
0
252
255
0
252
255
0
252
255
0
252
255
0
252
255
0
252
255
0
252
255
0
252
255
0
252
255
0
252
255
0
252
255
0
252
255
0
252
255
0
252
255
0
252
255
0
252
255
0
252
255
0
252
255
0
252
255
0
252
255
0
252
255
0
252
255
0
252
255
0
252
255
0
252
255
0
252
255
0
252
255
0
252
255
0
252
255
0
252
255
0
252
255
0
252
255
0
252
255
0
252
255
0
252
255
0
252
255
0
252
255
0
252
255
0
252
255
0
252
255
0
252
255
0
252
255
0
252
255
0
252
255
0
252
255
0
252
255
0
252
255
0
252
255
0
252
255
0
252
255
0
252
255
0
252
255
0
252
255
0
252
255
0
252
255
0
252
255
0
252
255
0
252
255
0
252
255
0
252
255
0
252
255
0
252
255
0
252
255
0
252
255
0
252
255
0
252
255
0
252
255
0
252
255
0
252
255
0
252
255
0
252
255
0
252
255
0
252
255
0
252
255
0
252
255
0
252
255
0
252
255
0
252
255
0
252
255
0
252
255
0
252
255
0
252
255
0
252
255
0
252
255
0
252
255
0
252
255
0
252
255
0
252
255
0
252
255
0
252
255
0
252
255
0
252
255
0
252
255
0
252
255
0
252
255
0
252
255
0
252
255
0
252
255
0
252
255
0
252
255
0
252
255
0
252
255
0
252
255
0
252
255
0
252
255
0
252
255
0
252
255
0
252
255
0
252
255
0
252
255
0
252
255
0
252
255
0
252
255
0
251
254
1
248
251
4
245
249
7
250
253
2
252
255
0
252
255
0
252
255
0
252
255
0
252
255
0
252
255
0
252
255
0
252
255
0
252
255
0
252
255
0
252
255
0
252
255
0
252
255
0
252
255
0
252
255
0
252
255
0
252
255
0
252
255
0
252
255
0
252
255
0
252
255
0
252
255
0
252
255
0
252
255
0
252
255
0
252
255
0
252
255
0
252
255
0
252
255
0
252
255
0
252
255
0
252
255
0
252
255
0
252
255
0
252
255
0
252
255
0
252
255
0
252
255
0
252
255
0
252
255
0
252
255
0
252
255
0
252
255
0
252
255
0
252
255
0
251
254
1
243
247
9
208
215
45
176
187
77
218
225
34
249
252
3
252
255
0
252
255
0
252
255
0
252
255
0
252
255
0
252
255
0
252
255
0
252
255
0
252
255
0
252
255
0
252
255
0
252
255
0
252
255
0
252
255
0
252
255
0
252
255
0
252
255
0
252
255
0
252
255
0
252
255
0
252
255
0
252
255
0
252
255
0
252
255
0
252
255
0
252
255
0
252
255
0
252
255
0
252
255
0
252
255
0
252
255
0
252
255
0
252
255
0
252
255
0
252
255
0
252
255
0
252
255
0
252
255
0
252
255
0
252
255
0
252
255
0
252
255
0
252
255
0
252
255
0
250
253
2
220
227
32
111
129
143
43
69
211
118
135
136
224
230
28
251
254
1
252
255
0
252
255
0
252
255
0
252
255
0
252
255
0
252
255
0
252
255
0
252
255
0
252
255
0
252
255
0
252
255
0
252
255
0
252
255
0
252
255
0
252
255
0
252
255
0
252
255
0
252
255
0
252
255
0
252
255
0
252
255
0
252
255
0
252
255
0
252
255
0
252
255
0
252
255
0
252
255
0
252
255
0
252
255
0
252
255
0
252
255
0
252
255
0
252
255
0
252
255
0
252
255
0
252
255
0
252
255
0
252
255
0
252
255
0
252
255
0
252
255
0
252
255
0
252
255
0
250
253
2
210
217
43
68
91
186
7
36
248
41
66
214
175
186
78
246
250
6
252
255
0
252
255
0
252
255
0
252
255
0
252
255
0
252
255
0
252
255
0
252
255
0
252
255
0
252
255
0
252
255
0
252
255
0
252
255
0
252
255
0
252
255
0
252
255
0
252
255
0
252
255
0
252
255
0
252
255
0
252
255
0
252
255
0
252
255
0
252
255
0
252
255
0
252
255
0
252
255
0
252
255
0
252
255
0
252
255
0
252
255
0
252
255
0
252
255
0
252
255
0
252
255
0
249
252
3
238
243
14
233
238
19
246
250
6
252
255
0
252
255
0
252
255
0
252
255
0
251
254
1
229
235
23
113
131
141
19
47
236
22
49
233
123
139
131
232
237
20
252
255
0
252
255
0
252
255
0
252
255
0
252
255
0
252
255
0
252
255
0
252
255
0
252
255
0
252
255
0
252
255
0
252
255
0
252
255
0
252
255
0
252
255
0
252
255
0
252
255
0
252
255
0
252
255
0
252
255
0
252
255
0
252
255
0
252
255
0
252
255
0
252
255
0
252
255
0
252
255
0
252
255
0
252
255
0
252
255
0
252
255
0
252
255
0
252
255
0
252
255
0
246
250
6
205
213
48
130
146
123
103
122
151
191
200
62
246
250
6
252
255
0
252
255
0
252
255
0
252
255
0
245
249
7
175
186
78
44
70
210
9
38
246
46
71
208
165
177
88
240
244
12
252
255
0
252
255
0
252
255
0
252
255
0
252
255
0
252
255
0
252
255
0
252
255
0
252
255
0
252
255
0
252
255
0
252
255
0
252
255
0
252
255
0
252
255
0
252
255
0
252
255
0
252
255
0
252
255
0
252
255
0
252
255
0
252
255
0
252
255
0
252
255
0
252
255
0
252
255
0
252
255
0
252
255
0
252
255
0
252
255
0
252
255
0
252
255
0
243
247
9
194
203
59
85
106
169
20
48
235
8
37
247
113
131
141
236
241
16
252
255
0
252
255
0
252
255
0
252
255
0
251
254
1
220
227
32
91
111
163
9
38
246
6
35
249
47
72
207
165
177
88
232
237
20
249
252
3
252
255
0
252
255
0
252
255
0
252
255
0
252
255
0
252
255
0
252
255
0
252
255
0
252
255
0
252
255
0
252
255
0
252
255
0
252
255
0
252
255
0
252
255
0
252
255
0
252
255
0
252
255
0
252
255
0
252
255
0
252
255
0
252
255
0
252
255
0
252
255
0
252
255
0
252
255
0
252
255
0
252
255
0
252
255
0
242
246
10
175
186
78
72
94
182
21
49
234
11
40
244
51
76
203
178
189
75
246
250
6
252
255
0
252
255
0
252
255
0
252
255
0
252
255
0
246
250
6
186
196
67
60
84
194
11
40
244
9
38
246
43
69
211
124
140
130
204
212
49
244
248
8
252
255
0
252
255
0
252
255
0
252
255
0
252
255
0
252
255
0
252
255
0
252
255
0
252
255
0
252
255
0
252
255
0
252
255
0
252
255
0
252
255
0
252
255
0
252
255
0
252
255
0
252
255
0
252
255
0
252
255
0
252
255
0
252
255
0
252
255
0
252
255
0
252
255
0
252
255
0
251
254
1
242
246
10
183
193
70
56
80
198
9
38
246
20
48
235
71
94
183
173
184
80
240
244
12
252
255
0
252
255
0
252
255
0
252
255
0
252
255
0
252
255
0
252
255
0
243
247
9
186
196
67
74
96
180
18
46
237
5
34
250
24
51
231
78
100
176
179
190
74
232
237
20
246
250
6
251
254
1
252
255
0
252
255
0
252
255
0
252
255
0
252
255
0
252
255
0
252
255
0
252
255
0
252
255
0
252
255
0
252
255
0
252
255
0
252
255
0
252
255
0
252
255
0
252
255
0
252
255
0
252
255
0
252
255
0
252
255
0
252
255
0
249
252
3
238
243
14
217
224
35
171
183
82
78
100
176
12
41
243
8
37
247
62
86
192
188
198
65
243
247
9
252
255
0
252
255
0
252
255
0
252
255
0
252
255
0
252
255
0
252
255
0
252
255
0
252
255
0
245
249
7
203
211
50
125
141
129
58
82
196
24
51
231
12
41
243
48
73
206
119
136
135
178
189
75
213
221
39
229
235
23
238
243
14
246
250
6
251
254
1
252
255
0
252
255
0
252
255
0
252
255
0
252
255
0
252
255
0
252
255
0
252
255
0
252
255
0
252
255
0
252
255
0
252
255
0
252
255
0
252
255
0
252
255
0
251
254
1
240
244
12
201
209
52
136
152
117
84
105
170
45
71
209
22
49
233
12
41
243
53
78
201
173
184
80
243
247
9
252
255
0
252
255
0
252
255
0
252
255
0
252
255
0
252
255
0
252
255
0
252
255
0
252
255
0
252
255
0
252
255
0
249
252
3
235
240
17
191
200
62
83
104
171
13
41
242
8
37
247
21
49
234
42
68
212
64
87
190
92
112
162
131
147
122
179
190
74
217
224
35
235
240
17
238
243
14
238
243
14
238
243
14
238
243
14
238
243
14
238
243
14
238
243
14
238
243
14
238
243
14
238
243
14
238
243
14
238
243
14
238
243
14
235
240
17
215
222
37
153
167
100
65
88
189
26
53
229
11
40
244
11
40
244
27
54
228
78
100
176
181
191
72
241
245
11
252
255
0
252
255
0
252
255
0
252
255
0
252
255
0
252
255
0
252
255
0
252
255
0
252
255
0
252
255
0
252
255
0
252
255
0
252
255
0
252
255
0
245
249
7
190
199
63
77
99
177
23
50
232
19
47
236
9
38
246
4
34
251
10
39
245
24
51
231
45
71
209
83
104
171
121
138
133
130
146
123
131
147
122
131
147
122
131
147
122
131
147
122
131
147
122
131
147
122
131
147
122
131
147
122
131
147
122
131
147
122
131
147
122
130
146
123
120
137
134
81
102
173
36
62
219
6
35
249
22
49
233
45
71
209
84
105
170
136
152
117
205
213
48
244
248
8
252
255
0
252
255
0
252
255
0
252
255
0
252
255
0
252
255
0
252
255
0
252
255
0
252
255
0
252
255
0
252
255
0
252
255
0
252
255
0
252
255
0
252
255
0
252
255
0
245
249
7
206
214
47
145
160
108
121
138
133
91
111
163
65
88
189
42
68
212
24
51
231
11
40
244
11
40
244
20
48
235
24
51
231
24
51
231
24
51
231
24
51
231
24
51
231
24
51
231
24
51
231
24
51
231
24
51
231
24
51
231
24
51
231
24
51
231
24
51
231
20
48
235
11
40
244
14
42
241
52
77
202
120
137
134
178
189
75
217
224
35
238
243
14
249
252
3
252
255
0
252
255
0
252
255
0
252
255
0
252
255
0
252
255
0
252
255
0
252
255
0
252
255
0
252
255
0
252
255
0
252
255
0
252
255
0
252
255
0
252
255
0
252
255
0
252
255
0
252
255
0
249
252
3
241
245
11
236
241
16
229
235
23
212
220
40
178
189
75
130
146
123
84
105
170
47
72
207
28
55
227
24
51
231
24
51
231
24
51
231
24
51
231
24
51
231
24
51
231
24
51
231
24
51
231
24
51
231
24
51
231
24
51
231
24
51
231
24
51
231
27
54
228
47
72
207
95
115
159
183
193
70
232
237
20
246
250
6
251
254
1
252
255
0
252
255
0
252
255
0
252
255
0
252
255
0
252
255
0
252
255
0
252
255
0
252
255
0
252
255
0
252
255
0
252
255
0
252
255
0
252
255
0
252
255
0
252
255
0
252
255
0
252
255
0
252
255
0
252
255
0
252
255
0
252
255
0
252
255
0
252
255
0
251
254
1
246
250
6
237
242
15
217
224
35
181
191
72
142
157
111
132
148
121
131
147
122
131
147
122
131
147
122
131
147
122
131
147
122
131
147
122
131
147
122
131
147
122
131
147
122
131
147
122
131
147
122
132
148
121
143
158
110
180
191
73
220
227
32
246
250
6
252
255
0
252
255
0
252
255
0
252
255
0
252
255
0
252
255
0
252
255
0
252
255
0
252
255
0
252
255
0
252
255
0
252
255
0
252
255
0
252
255
0
252
255
0
252
255
0
252
255
0
252
255
0
252
255
0
252
255
0
252
255
0
252
255
0
252
255
0
252
255
0
252
255
0
252
255
0
252
255
0
252
255
0
252
255
0
252
255
0
251
254
1
246
250
6
240
244
12
238
243
14
238
243
14
238
243
14
238
243
14
238
243
14
238
243
14
238
243
14
238
243
14
238
243
14
238
243
14
238
243
14
238
243
14
238
243
14
240
244
12
246
250
6
251
254
1
252
255
0
252
255
0
252
255
0
252
255
0
252
255
0
252
255
0
252
255
0
252
255
0
252
255
0
252
255
0
252
255
0
252
255
0
252
255
0
252
255
0
252
255
0
252
255
0
252
255
0
252
255
0
252
255
0
252
255
0
252
255
0
252
255
0
252
255
0
252
255
0
252
255
0
252
255
0
252
255
0
252
255
0
252
255
0
252
255
0
252
255
0
252
255
0
252
255
0
252
255
0
252
255
0
252
255
0
252
255
0
252
255
0
252
255
0
252
255
0
252
255
0
252
255
0
252
255
0
252
255
0
252
255
0
252
255
0
252
255
0
252
255
0
252
255
0
252
255
0
252
255
0
252
255
0
252
255
0
252
255
0
252
255
0
252
255
0
252
255
0
252
255
0
252
255
0
252
255
0
252
255
0
252
255
0
252
255
0
252
255
0
252
255
0
252
255
0
252
255
0
252
255
0
252
255
0
252
255
0
252
255
0
252
255
0
252
255
0
252
255
0
252
255
0
252
255
0
252
255
0
252
255
0
252
255
0
252
255
0
252
255
0
252
255
0
252
255
0
252
255
0
252
255
0
252
255
0
252
255
0
252
255
0
252
255
0
252
255
0
252
255
0
252
255
0
252
255
0
252
255
0
252
255
0
252
255
0
252
255
0
252
255
0
252
255
0
252
255
0
252
255
0
252
255
0
252
255
0
252
255
0
252
255
0
252
255
0
252
255
0
252
255
0
252
255
0
252
255
0
252
255
0
252
255
0
252
255
0
252
255
0
252
255
0
252
255
0
252
255
0
252
255
0
252
255
0
252
255
0
252
255
0
252
255
0
252
255
0
252
255
0
252
255
0
252
255
0
252
255
0
252
255
0
252
255
0
252
255
0
252
255
0
252
255
0
252
255
0
252
255
0
252
255
0
252
255
0
252
255
0
252
255
0
252
255
0
252
255
0
252
255
0
252
255
0
252
255
0
252
255
0
252
255
0
252
255
0
252
255
0
252
255
0
252
255
0
252
255
0
252
255
0
252
255
0
252
255
0
252
255
0
252
255
0
252
255
0
252
255
0
252
255
0
252
255
0
252
255
0
252
255
0
252
255
0
252
255
0
252
255
0
252
255
0
252
255
0
252
255
0
252
255
0
252
255
0
252
255
0
252
255
0
252
255
0
252
255
0
252
255
0
252
255
0
252
255
0
252
255
0
252
255
0
252
255
0
252
255
0
252
255
0
252
255
0
252
255
0
252
255
0
252
255
0
252
255
0
252
255
0
252
255
0
252
255
0
252
255
0
252
255
0
252
255
0
252
255
0
252
255
0
252
255
0
252
255
0
252
255
0
252
255
0
252
255
0
252
255
0
252
255
0
252
255
0
252
255
0
252
255
0
252
255
0
252
255
0
252
255
0
252
255
0
252
255
0
252
255
0
252
255
0
252
255
0
252
255
0
252
255
0
252
255
0
252
255
0
252
255
0
252
255
0
252
255
0
252
255
0
252
255
0
252
255
0
252
255
0
252
255
0
252
255
0
252
255
0
252
255
0
252
255
0
252
255
0
252
255
0
252
255
0
252
255
0
252
255
0
252
255
0
252
255
0
252
255
0
252
255
0
252
255
0
252
255
0
252
255
0
252
255
0
252
255
0
252
255
0
252
255
0
252
255
0
252
255
0
252
255
0
252
255
0
252
255
0
252
255
0
252
255
0
252
255
0
252
255
0
252
255
0
252
255
0
252
255
0
252
255
0
252
255
0
252
255
0
252
255
0
252
255
0
252
255
0
252
255
0
252
255
0
252
255
0
252
255
0
252
255
0
252
255
0
252
255
0
252
255
0
252
255
0
252
255
0
252
255
0
252
255
0
252
255
0
252
255
0
252
255
0
252
255
0
252
255
0
252
255
0
252
255
0
252
255
0
252
255
0
252
255
0
252
255
0
252
255
0
252
255
0
252
255
0
252
255
0
252
255
0
252
255
0
252
255
0
252
255
0
252
255
0
252
255
0
252
255
0
252
255
0
252
255
0
252
255
0
252
255
0
252
255
0
252
255
0
252
255
0
252
255
0
252
255
0
252
255
0
252
255
0
252
255
0
252
255
0
252
255
0
252
255
0
252
255
0
252
255
0
252
255
0
252
255
0
252
255
0
252
255
0
252
255
0
252
255
0
252
255
0
252
255
0
252
255
0
252
255
0
252
255
0
252
255
0
252
255
0
252
255
0
252
255
0
252
255
0
252
255
0
252
255
0
252
255
0
252
255
0
252
255
0
252
255
0
252
255
0
252
255
0
252
255
0
252
255
0
252
255
0
252
255
0
252
255
0
252
255
0
252
255
0
252
255
0
252
255
0
252
255
0
252
255
0
252
255
0
252
255
0
252
255
0
252
255
0
252
255
0
252
255
0
252
255
0
252
255
0
252
255
0
252
255
0
252
255
0
252
255
0
252
255
0
252
255
0
252
255
0
252
255
0
252
255
0
252
255
0
252
255
0
252
255
0
252
255
0
252
255
0
252
255
0
252
255
0
252
255
0
252
255
0
252
255
0
252
255
0
252
255
0
252
255
0
252
255
0
252
255
0
252
255
0
252
255
0
252
255
0
252
255
0
252
255
0
252
255
0
252
255
0
252
255
0
252
255
0
252
255
0
252
255
0
252
255
0
252
255
0
252
255
0
252
255
0
252
255
0
252
255
0
252
255
0
252
255
0
252
255
0
252
255
0
252
255
0
252
255
0
252
255
0
252
255
0
252
255
0
252
255
0
252
255
0
252
255
0
252
255
0
252
255
0
252
255
0
252
255
0
252
255
0
252
255
0
252
255
0
252
255
0
252
255
0
252
255
0
252
255
0
252
255
0
252
255
0
252
255
0
252
255
0
252
255
0
252
255
0
252
255
0
252
255
0
252
255
0
252
255
0
252
255
0
252
255
0
252
255
0
252
255
0
252
255
0
252
255
0
252
255
0
252
255
0
252
255
0
252
255
0
252
255
0
252
255
0
252
255
0
252
255
0
252
255
0
252
255
0
252
255
0
252
255
0
252
255
0
252
255
0
252
255
0
252
255
0
252
255
0
252
255
0
252
255
0
252
255
0
252
255
0
252
255
0
252
255
0
252
255
0
252
255
0
252
255
0
252
255
0
