P3
#Meta Info
4 4
1000
500 500 500   500 500 500   500 500 500   500 500 500
500 500 500   625 625 625   625 625 625   500 500 500
500 500 500   625 625 625   625 625 625   500 500 500
500 500 500   500 500 500   500 500 500   500 500 500



