P3
#Meta Info
5 5
1000
500 500 500   500 500 500   500 500 500      500 500 500   500 500 500
500 500 500   500 500 500   500 500 500      500 500 500   500 500 500
500 500 500   500 500 500   1000 1000 1000   500 500 500   500 500 500
500 500 500   500 500 500   500 500 500      500 500 500   500 500 500
500 500 500   500 500 500   500 500 500      500 500 500   500 500 500



